<?xml version="1.0" encoding="UTF-8" standalone="no" ?>
<!DOCTYPE svg PUBLIC "-//W3C//DTD SVG 1.1//EN" "http://www.w3.org/Graphics/SVG/1.1/DTD/svg11.dtd">
<svg xmlns="http://www.w3.org/2000/svg" xmlns:xlink="http://www.w3.org/1999/xlink" version="1.1" width="426" height="415" viewBox="0 0 426 415" xml:space="preserve">
<desc>Created with Fabric.js 3.6.6</desc>
<defs>
</defs>
<g transform="matrix(1 0 0 1 213.3 208.47)"  >
<path style="stroke: none; stroke-width: 1; stroke-dasharray: none; stroke-linecap: butt; stroke-dashoffset: 0; stroke-linejoin: miter; stroke-miterlimit: 4; fill: rgb(23,44,61); fill-rule: nonzero; opacity: 1;"  transform=" translate(-513.52, -353.97)" d="m 504.91 147.8 c 1.01 -0.01 2.03 -0.01 3.07 -0.02 c 2.13 -0.01 4.27 -0.01 6.4 -0.02 c 3.21 -0.01 6.42 -0.04 9.64 -0.07 c 11.74 -0.06 22.54 0.6 33.98 3.31 c 1.81 0.37 3.63 0.74 5.45 1.11 c 12.42 2.73 23.92 6.75 35.55 11.89 c 1.13 0.5 1.13 0.5 2.29 1.02 c 14.63 6.51 28.12 13.98 40.71 23.98 c 0.9 0.71 1.8 1.42 2.73 2.15 c 7.41 5.94 14.38 12.32 21.27 18.85 c 0.75 0.71 1.5 1.43 2.28 2.16 c 8.71 8.45 15.88 18.11 22.6 28.17 c 1.09 1.64 2.21 3.25 3.33 4.87 c 11.98 17.8 20.34 37.92 25.54 58.68 c 0.3 1.17 0.6 2.34 0.91 3.55 c 6.44 25.23 7.61 57 2.34 82.57 c -0.31 1.57 -0.62 3.14 -0.92 4.71 c -2.54 12.72 -5.93 24.36 -11.08 36.29 c -0.5 1.22 -0.99 2.44 -1.5 3.69 c -8.03 19.6 -20.2 36.32 -33.93 52.31 c -1.75 2.04 -3.47 4.1 -5.18 6.19 c -1.91 2.24 -3.71 4.12 -5.96 6 c -3.44 2.92 -6.72 5.97 -10 9.06 c -36.49 33.74 -88.02 51.96 -137.25 52 c -1.15 0 -1.15 0 -2.32 0.01 c -20 -0.03 -38.68 -2.57 -57.86 -8.26 c -1.21 -0.34 -2.41 -0.68 -3.65 -1.03 c -7.36 -2.16 -14.36 -4.82 -21.35 -7.97 c -0.77 -0.34 -1.53 -0.68 -2.32 -1.04 c -21.77 -9.85 -40.7 -22.23 -58.68 -37.96 c -0.53 -0.45 -1.06 -0.91 -1.6 -1.39 c -6.38 -5.56 -12.09 -11.33 -17.33 -18.01 c -1.9 -2.37 -3.87 -4.57 -5.95 -6.78 c -32.15 -36.27 -47.73 -88.02 -45.12 -135.82 c 1.03 -14.21 3.02 -28.29 7 -42 c 0.2 -0.7 0.41 -1.41 0.62 -2.14 c 10.03 -33.73 28.79 -62.91 53.38 -87.86 c 1.09 -1.12 2.17 -2.25 3.26 -3.38 c 15.85 -16.31 35.03 -29.26 55.74 -38.62 c 0.65 -0.3 1.31 -0.61 1.99 -0.92 c 25.75 -11.92 53.48 -19.15 81.92 -19.28 z" stroke-linecap="round" />
</g>
<g transform="matrix(1 0 0 1 213.3 206.79)"  >
<path style="stroke: none; stroke-width: 1; stroke-dasharray: none; stroke-linecap: butt; stroke-dashoffset: 0; stroke-linejoin: miter; stroke-miterlimit: 4; fill: rgb(244,247,241); fill-rule: nonzero; opacity: 1;"  transform=" translate(-513.52, -353.97)" d="m 504.91 147.8 c 1.01 -0.01 2.03 -0.01 3.07 -0.02 c 2.13 -0.01 4.27 -0.01 6.4 -0.02 c 3.21 -0.01 6.42 -0.04 9.64 -0.07 c 11.74 -0.06 22.54 0.6 33.98 3.31 c 1.81 0.37 3.63 0.74 5.45 1.11 c 12.42 2.73 23.92 6.75 35.55 11.89 c 1.13 0.5 1.13 0.5 2.29 1.02 c 14.63 6.51 28.12 13.98 40.71 23.98 c 0.9 0.71 1.8 1.42 2.73 2.15 c 7.41 5.94 14.38 12.32 21.27 18.85 c 0.75 0.71 1.5 1.43 2.28 2.16 c 8.71 8.45 15.88 18.11 22.6 28.17 c 1.09 1.64 2.21 3.25 3.33 4.87 c 11.98 17.8 20.34 37.92 25.54 58.68 c 0.3 1.17 0.6 2.34 0.91 3.55 c 6.44 25.23 7.61 57 2.34 82.57 c -0.31 1.57 -0.62 3.14 -0.92 4.71 c -2.54 12.72 -5.93 24.36 -11.08 36.29 c -0.5 1.22 -0.99 2.44 -1.5 3.69 c -8.03 19.6 -20.2 36.32 -33.93 52.31 c -1.75 2.04 -3.47 4.1 -5.18 6.19 c -1.91 2.24 -3.71 4.12 -5.96 6 c -3.44 2.92 -6.72 5.97 -10 9.06 c -36.49 33.74 -88.02 51.96 -137.25 52 c -1.15 0 -1.15 0 -2.32 0.01 c -20 -0.03 -38.68 -2.57 -57.86 -8.26 c -1.21 -0.34 -2.41 -0.68 -3.65 -1.03 c -7.36 -2.16 -14.36 -4.82 -21.35 -7.97 c -0.77 -0.34 -1.53 -0.68 -2.32 -1.04 c -21.77 -9.85 -40.7 -22.23 -58.68 -37.96 c -0.53 -0.45 -1.06 -0.91 -1.6 -1.39 c -6.38 -5.56 -12.09 -11.33 -17.33 -18.01 c -1.9 -2.37 -3.87 -4.57 -5.95 -6.78 c -32.15 -36.27 -47.73 -88.02 -45.12 -135.82 c 1.03 -14.21 3.02 -28.29 7 -42 c 0.2 -0.7 0.41 -1.41 0.62 -2.14 c 10.03 -33.73 28.79 -62.91 53.38 -87.86 c 1.09 -1.12 2.17 -2.25 3.26 -3.38 c 15.85 -16.31 35.03 -29.26 55.74 -38.62 c 0.65 -0.3 1.31 -0.61 1.99 -0.92 c 25.75 -11.92 53.48 -19.15 81.92 -19.28 z m -22.16 15.2 c -0.82 0.13 -1.64 0.26 -2.48 0.39 c -36.32 6.2 -72.97 22.13 -99.56 47.98 c -2.22 2.15 -4.47 4.16 -6.84 6.13 c -14.85 12.95 -25.94 29.65 -35.87 46.5 c -0.55 0.92 -0.55 0.92 -1.1 1.86 c -12.99 22.3 -19.58 47.6 -21.9 73.14 c 17.82 0 35.64 0 54 0 c 0 -18.15 0 -36.3 0 -55 c -7.92 0.33 -15.84 0.66 -24 1 c 4 -10 4 -10 5 -12 c 5.94 -0.33 11.88 -0.66 18 -1 c 0.03 -2.69 0.03 -2.69 0.07 -5.44 c 0.06 -2.37 0.12 -4.75 0.18 -7.12 c 0.01 -1.18 0.02 -2.36 0.04 -3.58 c 0.25 -8.98 1.85 -13.93 7.83 -20.73 c 0.5 -0.58 1 -1.15 1.51 -1.74 c 1.37 -1.39 1.37 -1.39 3.37 -2.39 c 0.49 20.3 0.49 20.3 1 41 c 18.15 0.33 36.3 0.66 55 1 c -0.99 2.31 -1.98 4.62 -3 7 c 0 1.65 0 3.3 0 5 c -16.83 0 -33.66 0 -51 0 c -1.25 2.49 -1.16 4.22 -1.21 7 c -0.02 1.04 -0.04 2.09 -0.06 3.16 c -0.02 1.13 -0.03 2.25 -0.05 3.41 c -0.03 1.73 -0.03 1.73 -0.06 3.49 c -0.07 3.69 -0.13 7.38 -0.19 11.07 c -0.04 2.49 -0.08 4.99 -0.13 7.49 c -0.11 6.13 -0.2 12.25 -0.3 18.38 c 13.86 0 27.72 0 42 0 c 0.66 3.96 1.32 7.92 2 12 c -14.19 0 -28.38 0 -43 0 c 0 15.18 0 30.36 0 46 c -3.96 -0.33 -7.92 -0.66 -12 -1 c -0.33 -14.85 -0.66 -29.7 -1 -45 c -27.03 -0.2 -27.03 -0.2 -54 1 c -0.48 9.5 0.78 18.43 2.39 27.74 c 0.42 2.39 0.82 4.78 1.21 7.17 c 1.75 10.43 3.9 20.21 8.38 29.85 c 0.99 2.18 1.81 4.38 2.64 6.62 c 8.1 20.18 20.34 38.95 35.38 54.62 c 1.11 1.31 2.21 2.62 3.31 3.94 c 4.32 4.95 9.18 9.3 14.09 13.64 c 1.04 0.93 2.07 1.86 3.1 2.8 c 12.19 11.08 26.18 20.47 41.5 26.62 c 2.31 1 4.62 2 6.93 3 c 1.19 0.51 2.37 1.01 3.59 1.53 c 2.19 0.93 4.37 1.87 6.54 2.82 c 9.79 4.26 19.88 7.22 30.38 9.15 c 4.06 0.8 8.07 1.82 12.09 2.82 c 9.62 1.9 19.32 1.89 29.09 1.87 c 0.71 0 1.43 0 2.16 0 c 20.24 -0.06 39.75 -2.8 58.7 -10.25 c 2.72 -1.01 5.46 -1.74 8.27 -2.5 c 21.46 -6.56 41.27 -18.93 58.25 -33.44 c 0.56 -0.47 1.13 -0.95 1.72 -1.44 c 37.07 -31.02 60.07 -74.19 64.88 -122.21 c 0.4 -3.35 0.4 -3.35 1.4 -6.35 c 0.08 -1.41 0.1 -2.82 0.09 -4.23 c 0 -1.2 0 -1.2 -0.01 -2.43 c 0 -0.83 -0.01 -1.67 -0.02 -2.52 c -0.01 -1.27 -0.01 -1.27 -0.02 -2.56 c -0.01 -2.09 -0.02 -4.17 -0.04 -6.26 c -18.7 -0.85 -37.29 -1.09 -56 -1 c 0 10.89 0 21.78 0 33 c -4.62 0 -9.24 0 -14 0 c 0 -10.89 0 -21.78 0 -33 c -11.55 -0.33 -23.1 -0.66 -35 -1 c 0.33 -3.63 0.66 -7.26 1 -11 c 11.22 0 22.44 0 34 0 c 0 -36.96 0 -73.92 0 -112 c 12.24 10.72 12.24 10.72 13 22 c 0.13 3.11 0.18 6.2 0.2 9.31 c 0.01 0.87 0.02 1.74 0.03 2.63 c 0.03 2.84 0.06 5.67 0.08 8.51 c 0.02 1.98 0.04 3.96 0.07 5.94 c 0.05 5.19 0.1 10.37 0.15 15.56 c 0.06 6.23 0.12 12.47 0.19 18.71 c 0.1 9.45 0.19 18.89 0.28 28.34 c 18.15 0 36.3 0 55 0 c 0 -10.77 0 -10.77 -2.1 -20.77 c -0.63 -2.24 -1.19 -4.5 -1.71 -6.77 c -3.97 -17.33 -9.95 -34.22 -19.19 -49.46 c -0.42 -0.68 -0.83 -1.35 -1.25 -2.05 c -16.55 -26.98 -37.54 -49.22 -63.75 -66.95 c -0.63 -0.42 -1.26 -0.85 -1.9 -1.28 c -22.75 -15.14 -49.34 -23.44 -76.1 -27.72 c -1.2 -0.2 -2.39 -0.4 -3.62 -0.6 c -6.77 -0.61 -13.59 -0.4 -20.38 -0.4 c 0.33 23.76 0.66 47.52 1 72 c -4.62 0 -9.24 0 -14 0 c 0 -23.76 0 -47.52 0 -72 c -12.24 -0.13 -12.24 -0.13 -24.25 1 z" stroke-linecap="round" />
</g>
<g transform="matrix(1 0 0 1 214.02 218.46)"  >
<path style="stroke: none; stroke-width: 1; stroke-dasharray: none; stroke-linecap: butt; stroke-dashoffset: 0; stroke-linejoin: miter; stroke-miterlimit: 4; fill: rgb(249,252,243); fill-rule: nonzero; opacity: 1;"  transform=" translate(-514.24, -363.96)" d="m 536 252 c 0.61 0.23 1.22 0.46 1.86 0.7 c 20.63 7.92 36.72 21.68 45.89 42.11 c 9.07 21.16 8.44 43.88 0.06 65.25 c -10.76 23.79 -25.3 46.06 -39.4 67.98 c -6.26 9.77 -11.79 19.88 -17.27 30.12 c -3.93 7.34 -8.02 14.6 -12.14 21.84 c -3.84 -1.28 -4.04 -2.41 -5.86 -5.94 c -0.55 -1.05 -1.1 -2.09 -1.67 -3.17 c -0.59 -1.14 -1.18 -2.28 -1.78 -3.45 c -1.27 -2.4 -2.54 -4.8 -3.81 -7.19 c -0.32 -0.61 -0.65 -1.22 -0.98 -1.85 c -8.27 -15.53 -17.53 -30.5 -26.78 -45.45 c -28.12 -45.55 -28.12 -45.55 -33.12 -64.95 c -0.18 -0.65 -0.35 -1.29 -0.54 -1.96 c -5.33 -21.15 -1.09 -42.61 9.48 -61.28 c 2.59 -4.31 5.66 -8.07 9.06 -11.76 c 0.7 -0.78 1.4 -1.56 2.12 -2.36 c 18.45 -19.56 49.22 -28.57 74.88 -18.64 z" stroke-linecap="round" />
</g>
<g transform="matrix(1 0 0 1 214.72 178.27)"  >
<path style="stroke: none; stroke-width: 1; stroke-dasharray: none; stroke-linecap: butt; stroke-dashoffset: 0; stroke-linejoin: miter; stroke-miterlimit: 4; fill: rgb(22,42,60); fill-rule: nonzero; opacity: 1;"  transform=" translate(-514.94, -323.79)" d="m 514.19 269.56 c 0.83 -0.01 1.66 -0.02 2.52 -0.03 c 5.91 0.08 10.82 1.29 16.29 3.47 c 0.88 0.34 1.75 0.68 2.65 1.03 c 14.83 7.03 24.38 18.18 30.41 33.3 c 4.62 13.04 1.93 27.26 -3.34 39.7 c -5.15 10.2 -12.7 18.48 -22.72 23.97 c -0.93 0.56 -1.87 1.12 -2.83 1.69 c -11.7 6.09 -26.5 6.6 -39.25 3.45 c -7.4 -2.57 -13.2 -6.87 -18.92 -12.14 c -0.66 -0.59 -1.31 -1.18 -1.99 -1.79 c -10.35 -9.74 -15.1 -22.47 -15.55 -36.51 c -0.1 -16.64 4.35 -29.12 15.85 -41.51 c 10.69 -9.92 22.46 -14.49 36.88 -14.63 z" stroke-linecap="round" />
</g>
<g transform="matrix(1 0 0 1 214.26 178.47)"  >
<path style="stroke: none; stroke-width: 1; stroke-dasharray: none; stroke-linecap: butt; stroke-dashoffset: 0; stroke-linejoin: miter; stroke-miterlimit: 4; fill: rgb(92,228,242); fill-rule: nonzero; opacity: 1;"  transform=" translate(-514.48, -323.97)" d="m 533 290 c 8.41 6.11 15.28 13.82 18 24 c 1.22 14.19 -0.87 25.03 -9.73 36.55 c -6.64 7.17 -16.42 11.41 -26.15 11.89 c -10.09 -0.36 -19.62 -5.22 -26.87 -12.1 c -8.82 -9.68 -10.45 -20.39 -10.61 -33.05 c 0.36 -3.29 0.36 -3.29 1.88 -5.24 c 0.49 -0.35 0.98 -0.69 1.48 -1.05 c 0.55 0.57 1.11 1.13 1.68 1.71 c 0.72 0.74 1.45 1.47 2.19 2.23 c 0.72 0.73 1.44 1.46 2.18 2.21 c 3.58 3.39 6.66 3.19 11.41 3.13 c 3.77 -0.41 5.78 -1.72 8.54 -4.28 c 1.89 -3.1 1.89 -3.1 3 -6 c -1 0.05 -1 0.05 -2.01 0.11 c -8.98 0.27 -8.98 0.27 -12.99 -3.11 c -2.84 -4.25 -2.75 -8.01 -2 -13 c 2.82 -4.27 6.42 -6.1 11.22 -7.49 c 9.81 -1.79 19.98 -1.5 28.78 3.49 z" stroke-linecap="round" />
</g>
<g transform="matrix(1 0 0 1 316.3 116.98)"  >
<path style="stroke: none; stroke-width: 1; stroke-dasharray: none; stroke-linecap: butt; stroke-dashoffset: 0; stroke-linejoin: miter; stroke-miterlimit: 4; fill: rgb(123,232,202); fill-rule: nonzero; opacity: 1;"  transform=" translate(-616.5, -262.5)" d="m 609 201 c 3.66 2.15 6.95 4.45 10.25 7.13 c 1.31 1.05 1.31 1.05 2.64 2.13 c 1.07 0.88 2.13 1.76 3.11 2.74 c 0.1 1.44 0.12 2.89 0.12 4.33 c 0 0.94 0 1.87 0 2.84 c 0 1.03 0 2.07 -0.01 3.13 c 0 1.09 0 2.17 0 3.28 c 0 3.6 0 7.2 -0.01 10.8 c 0 2.49 -0.01 4.97 -0.01 7.46 c 0 5.89 -0.01 11.78 -0.02 17.67 c -0.01 7.36 -0.02 14.72 -0.02 22.08 c -0.01 13.14 -0.03 26.27 -0.05 39.41 c -5.61 0 -11.22 0 -17 0 c -0.02 -12.94 -0.04 -25.87 -0.05 -38.81 c -0.01 -6.01 -0.01 -12.02 -0.03 -18.03 c -0.01 -5.81 -0.01 -11.63 -0.01 -17.45 c -0.01 -2.2 -0.01 -4.4 -0.02 -6.6 c -0.03 -14.07 0.3 -28.06 1.11 -42.11 z" stroke-linecap="round" />
</g>
<g transform="matrix(1 0 0 1 124.21 306.32)"  >
<path style="stroke: none; stroke-width: 1; stroke-dasharray: none; stroke-linecap: butt; stroke-dashoffset: 0; stroke-linejoin: miter; stroke-miterlimit: 4; fill: rgb(112,221,227); fill-rule: nonzero; opacity: 1;"  transform=" translate(-424.43, -451.85)" d="m 373.5 438.69 c 6.1 0.05 10.2 1.45 15.5 4.31 c 6.42 3.42 10.85 4.98 18 3 c 4.19 -1.41 8.31 -2.99 12.43 -4.62 c 11.32 -4.36 20.89 -2.83 31.74 1.96 c 1.95 0.88 3.89 1.77 5.83 2.66 c 4.72 2.08 7.87 2.42 13 2 c 0.66 -0.99 1.32 -1.98 2 -3 c 0.66 0 1.32 0 2 0 c 0.24 0.53 0.48 1.06 0.73 1.61 c 1.99 4.18 3.84 7.21 7.27 10.39 c 0 0.66 0 1.32 0 2 c -1.87 0.85 -3.75 1.68 -5.62 2.5 c -1.05 0.47 -2.09 0.93 -3.17 1.41 c -4.35 1.48 -7.63 1.67 -11.98 0.08 c -1.4 -0.69 -1.4 -0.69 -2.83 -1.39 c -1.57 -0.75 -1.57 -0.75 -3.18 -1.51 c -2.17 -1.05 -4.33 -2.11 -6.48 -3.18 c -8.2 -3.84 -16.06 -5.85 -25.01 -3.25 c -2.21 0.92 -2.21 0.92 -5.29 2.78 c -7.88 4.42 -15.66 6.46 -24.72 3.93 c -1.29 -0.53 -2.56 -1.07 -3.83 -1.63 c -3.22 -1.25 -6.47 -1.43 -9.89 -1.74 c 0 2.64 0 5.28 0 8 c -4.61 -1.31 -8.19 -3.07 -12 -6 c -1.25 -3.74 -1.15 -7.23 -1.13 -11.12 c 0 -0.74 0 -1.48 -0.01 -2.25 c 0.02 -6.44 0.28 -6.79 6.64 -6.94 z" stroke-linecap="round" />
</g>
<g transform="matrix(1 0 0 1 101.78 272.98)"  >
<path style="stroke: none; stroke-width: 1; stroke-dasharray: none; stroke-linecap: butt; stroke-dashoffset: 0; stroke-linejoin: miter; stroke-miterlimit: 4; fill: rgb(249,251,243); fill-rule: nonzero; opacity: 1;"  transform=" translate(-402, -418.5)" d="m 342 412 c 14.33 -0.26 28.67 -0.45 43 -0.57 c 6.66 -0.06 13.32 -0.14 19.97 -0.26 c 6.43 -0.12 12.85 -0.19 19.28 -0.21 c 2.45 -0.02 4.9 -0.06 7.35 -0.12 c 20.22 -0.47 20.22 -0.47 24.69 3.58 c 2.78 3.72 4.25 7.21 5.71 11.58 c -14.81 0.07 -29.62 0.12 -44.44 0.16 c -6.87 0.01 -13.75 0.03 -20.63 0.07 c -6.63 0.03 -13.26 0.05 -19.9 0.05 c -2.53 0.01 -5.07 0.02 -7.6 0.04 c -3.54 0.02 -7.08 0.02 -10.62 0.02 c -1.59 0.02 -1.59 0.02 -3.2 0.03 c -0.97 0 -1.93 0 -2.92 -0.01 c -1.26 0 -1.26 0 -2.54 0.01 c -2.75 -0.47 -3.53 -1.11 -5.15 -3.37 c -0.95 -2.7 -0.95 -2.7 -1.69 -5.69 c -0.25 -0.99 -0.5 -1.99 -0.76 -3.01 c -0.18 -0.76 -0.36 -1.52 -0.55 -2.3 z" stroke-linecap="round" />
</g>
<g transform="matrix(1 0 0 1 143.78 334.62)"  >
<path style="stroke: none; stroke-width: 1; stroke-dasharray: none; stroke-linecap: butt; stroke-dashoffset: 0; stroke-linejoin: miter; stroke-miterlimit: 4; fill: rgb(102,206,210); fill-rule: nonzero; opacity: 1;"  transform=" translate(-444, -480.14)" d="m 443.31 468.17 c 3.28 1.53 6.49 3.15 9.69 4.83 c 10.22 4.98 17.75 6.95 28.76 3.2 c 2.77 -1.01 5.51 -2.09 8.24 -3.2 c 1.51 2.62 3.01 5.25 4.5 7.87 c 0.43 0.75 0.86 1.5 1.3 2.26 c 0.41 0.72 0.81 1.44 1.23 2.17 c 0.38 0.66 0.76 1.32 1.15 2 c 0.82 1.7 0.82 1.7 0.82 3.7 c -19.61 6.13 -35.64 1.74 -53.7 -6.51 c -6.5 -2.93 -12.94 -3.76 -19.89 -1.74 c -3.34 1.35 -6.59 2.86 -9.83 4.4 c -6.45 2.88 -12.54 4.19 -19.58 2.85 c -5.14 -4.01 -6.06 -8.72 -7 -15 c 0.64 0.16 1.28 0.33 1.94 0.5 c 7.53 1.23 13.61 0.43 20.69 -2.31 c 0.71 -0.27 1.42 -0.53 2.15 -0.8 c 3.35 -1.24 6.62 -2.57 9.86 -4.06 c 6.48 -2.57 13.1 -2.49 19.67 -0.16 z" stroke-linecap="round" />
</g>
<g transform="matrix(1 0 0 1 177.71 251.48)"  >
<path style="stroke: none; stroke-width: 1; stroke-dasharray: none; stroke-linecap: butt; stroke-dashoffset: 0; stroke-linejoin: miter; stroke-miterlimit: 4; fill: rgb(219,226,222); fill-rule: nonzero; opacity: 1;"  transform=" translate(-477.91, -397)" d="m 439 314 c 0.33 0 0.66 0 1 0 c 0.04 0.65 0.07 1.3 0.11 1.98 c 0.42 5.48 1.34 9.11 3.89 14.02 c 0.5 1.8 0.95 3.62 1.38 5.44 c 2.63 10.95 6.25 21.17 11 31.37 c 0.35 0.77 0.7 1.53 1.06 2.32 c 2.46 5.13 5.41 9.67 8.73 14.28 c 3.11 4.4 5.96 8.97 8.83 13.53 c 0.58 0.91 1.16 1.82 1.75 2.76 c 2.35 3.71 4.7 7.42 7.04 11.14 c 3.57 5.66 7.26 11.21 11.15 16.66 c 0.77 1.09 0.77 1.09 1.55 2.2 c 3.57 5.02 7.19 9.98 10.89 14.91 c 4.15 6.13 5.51 11.89 6.75 19.08 c 0.33 1.88 0.67 3.76 1 5.63 c 0.22 1.24 0.22 1.24 0.44 2.51 c 0.42 2.34 0.42 2.34 1.43 5.17 c -0.66 0.99 -1.32 1.98 -2 3 c -3.84 -1.28 -4.04 -2.41 -5.86 -5.94 c -0.55 -1.05 -1.1 -2.09 -1.67 -3.17 c -0.59 -1.14 -1.18 -2.28 -1.78 -3.45 c -1.27 -2.4 -2.54 -4.8 -3.81 -7.19 c -0.32 -0.61 -0.65 -1.22 -0.98 -1.85 c -8.27 -15.53 -17.53 -30.5 -26.78 -45.45 c -28.12 -45.55 -28.12 -45.55 -33.12 -64.95 c -0.18 -0.64 -0.36 -1.27 -0.54 -1.92 c -1.74 -6.72 -1.69 -13.24 -1.59 -20.14 c 0.01 -1.15 0.02 -2.31 0.03 -3.49 c 0.03 -2.82 0.06 -5.63 0.1 -8.45 z" stroke-linecap="round" />
</g>
<g transform="matrix(1 0 0 1 249.78 66.96)"  >
<path style="stroke: none; stroke-width: 1; stroke-dasharray: none; stroke-linecap: butt; stroke-dashoffset: 0; stroke-linejoin: miter; stroke-miterlimit: 4; fill: rgb(122,224,197); fill-rule: nonzero; opacity: 1;"  transform=" translate(-550, -212.5)" d="m 539 178 c 4.85 -0.05 9.08 0.26 13.81 1.38 c 1.68 0.38 1.68 0.38 3.4 0.77 c 2.79 0.85 2.79 0.85 4.79 2.85 c 0.24 2.67 0.24 2.67 0.23 6.1 c 0 1.28 0 2.56 0 3.88 c -0.01 1.41 -0.02 2.81 -0.03 4.22 c -0.01 1.43 -0.01 2.86 -0.01 4.29 c -0.01 3.77 -0.03 7.54 -0.05 11.32 c -0.02 3.84 -0.03 7.69 -0.04 11.54 c -0.02 7.55 -0.06 15.1 -0.1 22.65 c -0.75 -0.3 -1.5 -0.6 -2.27 -0.91 c -2.14 -0.85 -4.28 -1.69 -6.43 -2.53 c -1.33 -0.52 -2.66 -1.04 -3.99 -1.56 c -0.67 -0.26 -1.35 -0.52 -2.05 -0.79 c -2.89 -1.14 -5.04 -1.99 -7.26 -4.21 c -0.24 -2.48 -0.24 -2.48 -0.23 -5.64 c 0 -1.18 0 -2.37 0 -3.58 c 0.01 -1.28 0.02 -2.56 0.03 -3.88 c 0.01 -1.31 0.01 -2.62 0.01 -3.96 c 0.01 -3.48 0.03 -6.95 0.05 -10.43 c 0.02 -3.54 0.03 -7.09 0.04 -10.63 c 0.02 -6.96 0.06 -13.92 0.1 -20.88 z" stroke-linecap="round" />
</g>
<g transform="matrix(1 0 0 1 280.28 334)"  >
<path style="stroke: none; stroke-width: 1; stroke-dasharray: none; stroke-linecap: butt; stroke-dashoffset: 0; stroke-linejoin: miter; stroke-miterlimit: 4; fill: rgb(116,230,228); fill-rule: nonzero; opacity: 1;"  transform=" translate(-580.5, -479.52)" d="m 608.48 469.85 c 2.25 1.03 4.41 2.15 6.58 3.34 c 4.45 2.36 8.97 2.61 13.94 2.81 c -0.14 1.96 -0.29 3.92 -0.44 5.88 c -0.12 1.63 -0.12 1.63 -0.24 3.3 c -0.32 2.82 -0.32 2.82 -1.32 4.82 c -6.4 0.4 -10.58 -0.67 -16.31 -3.44 c -1.39 -0.64 -2.79 -1.29 -4.18 -1.93 c -1.16 -0.54 -2.32 -1.07 -3.51 -1.63 c -7.35 -2.45 -13.68 -1.22 -20.49 2.15 c -0.81 0.43 -1.61 0.85 -2.45 1.29 c -1.65 0.83 -3.31 1.66 -4.96 2.5 c -1.08 0.55 -1.08 0.55 -2.17 1.12 c -5.76 2.81 -11.35 2.64 -17.3 0.67 c -1.5 -0.55 -3.01 -1.1 -4.51 -1.67 c -6.45 -2.3 -12.21 -3.83 -19.12 -4.06 c 0.98 -2.14 1.96 -4.29 2.94 -6.44 c 0.54 -1.19 1.09 -2.39 1.65 -3.62 c 1.41 -2.94 1.41 -2.94 2.41 -3.94 c 4.8 0.26 8.43 1.09 12.81 3.06 c 6.41 2.6 11.8 3.7 18.44 1.04 c 2.58 -1.16 5.13 -2.37 7.69 -3.6 c 11.13 -5.34 18.88 -6.34 30.54 -1.65 z" stroke-linecap="round" />
</g>
<g transform="matrix(1 0 0 1 285.22 87.48)"  >
<path style="stroke: none; stroke-width: 1; stroke-dasharray: none; stroke-linecap: butt; stroke-dashoffset: 0; stroke-linejoin: miter; stroke-miterlimit: 4; fill: rgb(181,247,235); fill-rule: nonzero; opacity: 1;"  transform=" translate(-585.44, -233)" d="m 578 186 c 2.68 1.03 5.05 2.03 7.5 3.56 c 2.77 1.77 2.77 1.77 7.5 2.44 c 0 29.04 0 58.08 0 88 c -0.66 0 -1.32 0 -2 0 c -0.49 -1.11 -0.99 -2.23 -1.5 -3.37 c -1.76 -3.66 -3.88 -6.1 -6.69 -9 c -3.46 -4.31 -4.42 -7.69 -4.54 -13.1 c -0.03 -0.76 -0.06 -1.52 -0.09 -2.31 c -0.43 -12.77 -0.28 -25.57 -0.24 -38.34 c 0 -2.72 0.01 -5.43 0.01 -8.14 c 0.01 -6.58 0.03 -13.16 0.05 -19.74 z" stroke-linecap="round" />
</g>
<g transform="matrix(1 0 0 1 346.08 273.24)"  >
<path style="stroke: none; stroke-width: 1; stroke-dasharray: none; stroke-linecap: butt; stroke-dashoffset: 0; stroke-linejoin: miter; stroke-miterlimit: 4; fill: rgb(244,248,246); fill-rule: nonzero; opacity: 1;"  transform=" translate(-646.3, -418.78)" d="m 655 400 c 5.29 2.42 7.99 6.2 10 11.56 c 1.83 7.15 1.01 11.58 -2.43 18.1 c -2.91 4.35 -6.59 6.68 -11.57 8.34 c -5.97 0.6 -10.73 0.08 -16 -3 c -3.89 -3.71 -7.54 -7.84 -8.34 -13.3 c -0.09 -6.1 0.69 -10.7 4.34 -15.7 c 6.72 -6.89 14.81 -7.49 24 -6 z" stroke-linecap="round" />
</g>
<g transform="matrix(1 0 0 1 286.83 304.85)"  >
<path style="stroke: none; stroke-width: 1; stroke-dasharray: none; stroke-linecap: butt; stroke-dashoffset: 0; stroke-linejoin: miter; stroke-miterlimit: 4; fill: rgb(121,237,237); fill-rule: nonzero; opacity: 1;"  transform=" translate(-587.05, -450.37)" d="m 604.75 440.69 c 1.42 0.76 2.84 1.53 4.25 2.31 c 9.17 4.19 9.17 4.19 19 6 c 0.03 1.42 0.05 2.84 0.06 4.25 c 0.01 0.79 0.03 1.58 0.04 2.39 c -0.1 2.27 -0.47 4.19 -1.1 6.36 c -7.57 -0.55 -13.54 -3.1 -20.4 -6.2 c -6.89 -2.95 -13.03 -3.95 -20.38 -2.1 c -0.71 0.33 -1.42 0.65 -2.16 0.99 c -0.82 0.36 -1.64 0.72 -2.49 1.09 c -1.78 0.84 -3.54 1.71 -5.29 2.6 c -6.18 3.05 -11.37 5.13 -18.28 3.62 c -4.17 -1.72 -8.09 -3.74 -12 -6 c 0.52 -0.92 0.52 -0.92 1.06 -1.86 c 0.45 -0.81 0.91 -1.62 1.38 -2.45 c 0.45 -0.8 0.9 -1.6 1.37 -2.43 c 1.3 -2.32 1.3 -2.32 2.19 -5.26 c 2.17 0.51 4 1 6 2 c 6.6 0.78 11.22 -0.61 17.06 -3.5 c 9.49 -4.27 19.74 -6.14 29.69 -1.81 z" stroke-linecap="round" />
</g>
<g transform="matrix(1 0 0 1 214.81 191.05)"  >
<path style="stroke: none; stroke-width: 1; stroke-dasharray: none; stroke-linecap: butt; stroke-dashoffset: 0; stroke-linejoin: miter; stroke-miterlimit: 4; fill: rgb(4,139,197); fill-rule: nonzero; opacity: 1;"  transform=" translate(-514.7, -336.57)" d="m 480 311 c 6.57 4.37 6.57 4.37 7.55 8.05 c 0.09 1.5 0.16 3 0.22 4.5 c 0.42 4.41 2.18 8.55 4.23 12.45 c 0.66 0.33 1.32 0.66 2 1 c 0 0.66 0 1.32 0 2 c 0.99 0 1.98 0 3 0 c 0.39 0.58 0.78 1.16 1.19 1.75 c 3.51 4.36 8.74 6.33 14.21 7 c 1.51 0.11 3.02 0.19 4.54 0.25 c 0.79 0.04 1.58 0.07 2.4 0.11 c 6.1 0.14 10.49 -0.74 15.66 -4.11 c 0.69 -0.35 1.38 -0.7 2.1 -1.07 c 5.62 -3.01 9.81 -6.8 11.9 -12.93 c 0.69 -6.32 0.35 -12.67 0 -19 c 4.04 6.06 2.74 16.17 1.38 23.18 c -3.3 10.08 -9.43 18.68 -18.88 23.67 c -9.24 4.24 -17.18 5.82 -27.06 2.53 c -10.7 -4.31 -18.8 -10.78 -23.63 -21.37 c -3.27 -8.09 -3.51 -16.38 -2.81 -25.01 c 0.66 -0.99 1.32 -1.98 2 -3 z" stroke-linecap="round" />
</g>
<g transform="matrix(1 0 0 1 273.06 362.6)"  >
<path style="stroke: none; stroke-width: 1; stroke-dasharray: none; stroke-linecap: butt; stroke-dashoffset: 0; stroke-linejoin: miter; stroke-miterlimit: 4; fill: rgb(92,212,218); fill-rule: nonzero; opacity: 1;"  transform=" translate(-572.95, -508.45)" d="m 611 500 c 1.82 1.64 1.82 1.64 3 3 c -1.54 2.95 -2.25 4.25 -5 6 c -3.11 0.12 -3.11 0.12 -6.81 -0.12 c -8.94 -0.42 -14.85 2.76 -22.46 7.13 c -6.94 3.98 -12.68 5.6 -20.73 4.99 c -3.5 -0.98 -6.82 -2.38 -10.16 -3.8 c -5.7 -2.36 -10.67 -2.91 -16.84 -2.2 c -0.03 -2.31 -0.05 -4.62 -0.06 -6.94 c -0.01 -1.29 -0.03 -2.57 -0.04 -3.9 c 0.1 -3.16 0.1 -3.16 1.1 -4.16 c 5.57 -0.45 9.61 0.81 14.62 3 c 7.78 3.07 15.21 5.36 23.42 2.22 c 4.22 -1.87 8.24 -4.05 12.27 -6.31 c 9.29 -5.03 18.45 -3.51 27.69 1.09 z" stroke-linecap="round" />
</g>
<g transform="matrix(1 0 0 1 144.84 77.98)"  >
<path style="stroke: none; stroke-width: 1; stroke-dasharray: none; stroke-linecap: butt; stroke-dashoffset: 0; stroke-linejoin: miter; stroke-miterlimit: 4; fill: rgb(230,244,231); fill-rule: nonzero; opacity: 1;"  transform=" translate(6.94, -37.5)" d="m 0 0 c 0.02 8.45 0.04 16.9 0.05 25.35 c 0.01 3.92 0.01 7.85 0.03 11.77 c 0.01 3.8 0.01 7.59 0.01 11.38 c 0.01 1.44 0.01 2.88 0.02 4.33 c 0.02 7.45 -0.08 14.77 -1.11 22.17 c -4.29 0 -8.58 0 -13 0 c 0 -23.1 0 -46.2 0 -70 c 10 -5 10 -5 14 -5 z" stroke-linecap="round" />
</g>
<g transform="matrix(1 0 0 1 154.88 364.14)"  >
<path style="stroke: none; stroke-width: 1; stroke-dasharray: none; stroke-linecap: butt; stroke-dashoffset: 0; stroke-linejoin: miter; stroke-miterlimit: 4; fill: rgb(81,186,200); fill-rule: nonzero; opacity: 1;"  transform=" translate(-455.1, -509.66)" d="m 447.94 499.75 c 0.84 0.35 1.68 0.7 2.55 1.05 c 3.31 1.38 6.61 2.78 9.86 4.29 c 8.07 3.73 15.29 5.19 24.15 5.54 c 0.82 0.03 1.65 0.07 2.49 0.11 c 2.01 0.1 4.01 0.18 6.01 0.26 c 0.06 1.62 0.1 3.25 0.13 4.88 c 0.02 0.9 0.04 1.8 0.07 2.74 c -0.2 2.38 -0.2 2.38 -2.2 4.38 c -19.01 1.91 -34.99 -4.4 -51.98 -12.12 c -3.78 -1.65 -6.81 -1.99 -10.89 -2.13 c -6.64 -0.49 -6.64 -0.49 -9.38 -3.19 c -1.75 -2.56 -1.75 -2.56 -1.75 -4.56 c 1.42 -0.65 2.83 -1.29 4.25 -1.94 c 0.79 -0.36 1.58 -0.72 2.39 -1.09 c 8.87 -3.65 15.82 -1.86 24.3 1.78 z" stroke-linecap="round" />
</g>
<g transform="matrix(1 0 0 1 288.78 272.94)"  >
<path style="stroke: none; stroke-width: 1; stroke-dasharray: none; stroke-linecap: butt; stroke-dashoffset: 0; stroke-linejoin: miter; stroke-miterlimit: 4; fill: rgb(245,247,243); fill-rule: nonzero; opacity: 1;"  transform=" translate(-589, -418.48)" d="m 594.5 411.38 c 1.79 0.05 3.59 0.1 5.38 0.14 c 4.38 0.11 8.75 0.28 13.12 0.49 c 0 4.62 0 9.24 0 14 c -15.84 0 -31.68 0 -48 0 c 0.66 -1.33 1.32 -2.65 2 -4 c 0.42 -0.85 0.83 -1.69 1.26 -2.56 c 6.39 -10.31 15.41 -8.6 26.24 -8.07 z" stroke-linecap="round" />
</g>
<g transform="matrix(1 0 0 1 179.78 45.98)"  >
<path style="stroke: none; stroke-width: 1; stroke-dasharray: none; stroke-linecap: butt; stroke-dashoffset: 0; stroke-linejoin: miter; stroke-miterlimit: 4; fill: rgb(125,229,206); fill-rule: nonzero; opacity: 1;"  transform=" translate(11, -13.5)" d="m 0 0 c 0 8.91 0 17.82 0 27 c -7.26 -0.33 -14.52 -0.66 -22 -1 c 0 -7.26 0 -14.52 0 -22 c 8.75 -3.75 12.31 -4 22 -4 z" stroke-linecap="round" />
</g>
<g transform="matrix(1 0 0 1 380.21 165.43)"  >
<path style="stroke: none; stroke-width: 1; stroke-dasharray: none; stroke-linecap: butt; stroke-dashoffset: 0; stroke-linejoin: miter; stroke-miterlimit: 4; fill: rgb(86,210,181); fill-rule: nonzero; opacity: 1;"  transform=" translate(-680.45, -310.95)" d="m 673.82 297.9 c 1.58 0.01 3.16 0.02 4.75 0.04 c 0.8 0 1.61 0 2.44 0.01 c 2 0.01 4 0.03 5.99 0.05 c 3.61 8.85 5 16.38 5 26 c -7.59 0 -15.18 0 -23 0 c -0.02 -4.15 -0.04 -8.29 -0.06 -12.44 c -0.01 -1.18 -0.02 -2.37 -0.02 -3.59 c -0.01 -1.12 -0.01 -2.25 -0.01 -3.41 c -0.01 -1.04 -0.01 -2.08 -0.02 -3.15 c 0.19 -3.99 0.74 -3.4 4.93 -3.51 z" stroke-linecap="round" />
</g>
<g transform="matrix(1 0 0 1 179.28 86.48)"  >
<path style="stroke: none; stroke-width: 1; stroke-dasharray: none; stroke-linecap: butt; stroke-dashoffset: 0; stroke-linejoin: miter; stroke-miterlimit: 4; fill: rgb(94,198,168); fill-rule: nonzero; opacity: 1;"  transform=" translate(-479.5, -232)" d="m 468 218 c 7.59 0 15.18 0 23 0 c 0 6.27 0 12.54 0 19 c -3 1.11 -3 1.11 -6.06 2.25 c -4.97 1.9 -9.39 4.02 -13.94 6.75 c -0.66 0 -1.32 0 -2 0 c -0.33 -9.24 -0.66 -18.48 -1 -28 z" stroke-linecap="round" />
</g>
<g transform="matrix(1 0 0 1 381.41 233.7)"  >
<path style="stroke: none; stroke-width: 1; stroke-dasharray: none; stroke-linecap: butt; stroke-dashoffset: 0; stroke-linejoin: miter; stroke-miterlimit: 4; fill: rgb(97,217,216); fill-rule: nonzero; opacity: 1;"  transform=" translate(-681.63, -379.22)" d="m 670 367 c 7.59 0 15.18 0 23 0 c 0.12 4.05 0.12 4.05 0.25 8.19 c 0.04 0.84 0.07 1.68 0.11 2.55 c 0.06 3.95 -0.11 5.85 -2.25 9.31 c -2.11 1.95 -2.11 1.95 -4.11 1.95 c 0 0.66 0 1.32 0 2 c -4.14 0.59 -7.58 0.99 -11.12 -1.49 c -5.83 -5.85 -5.83 -5.85 -5.98 -10.99 c 0.01 -1.38 0.02 -2.76 0.04 -4.14 c 0.02 -2.44 0.04 -4.87 0.06 -7.38 z" stroke-linecap="round" />
</g>
<g transform="matrix(1 0 0 1 43.78 166.38)"  >
<path style="stroke: none; stroke-width: 1; stroke-dasharray: none; stroke-linecap: butt; stroke-dashoffset: 0; stroke-linejoin: miter; stroke-miterlimit: 4; fill: rgb(75,177,166); fill-rule: nonzero; opacity: 1;"  transform=" translate(-344, -311.9)" d="m 342.7 299.8 c 1.48 0.01 2.95 0.04 4.43 0.07 c 2.6 0.04 5.2 0.08 7.87 0.13 c 0 7.92 0 15.84 0 24 c -7.26 0 -14.52 0 -22 0 c 1.39 -23.76 1.39 -23.76 9.7 -24.2 z" stroke-linecap="round" />
</g>
<g transform="matrix(1 0 0 1 44.49 233.17)"  >
<path style="stroke: none; stroke-width: 1; stroke-dasharray: none; stroke-linecap: butt; stroke-dashoffset: 0; stroke-linejoin: miter; stroke-miterlimit: 4; fill: rgb(84,196,180); fill-rule: nonzero; opacity: 1;"  transform=" translate(-344.71, -378.69)" d="m 340.13 366.9 c 0.81 0 1.61 0.01 2.44 0.01 c 1.26 0.01 1.26 0.01 2.55 0.03 c 0.85 0 1.7 0 2.58 0.01 c 2.1 0.01 4.2 0.03 6.3 0.05 c 1.14 3.43 1.24 6.25 1.31 9.87 c 0.04 1.22 0.07 2.43 0.11 3.68 c -0.5 4.05 -1.53 5.63 -4.42 8.45 c -3.65 1.21 -7.28 2.08 -11 1 c -4.18 -3.86 -5.56 -6.57 -5.8 -12.22 c 0 -0.71 -0.01 -1.42 -0.02 -2.16 c -0.02 -0.73 -0.05 -1.47 -0.07 -2.23 c -0.06 -1.8 -0.09 -3.59 -0.11 -5.39 c 2.29 -1.15 3.58 -1.12 6.13 -1.1 z" stroke-linecap="round" />
</g>
<g transform="matrix(1 0 0 1 108.92 93.75)"  >
<path style="stroke: none; stroke-width: 1; stroke-dasharray: none; stroke-linecap: butt; stroke-dashoffset: 0; stroke-linejoin: miter; stroke-miterlimit: 4; fill: rgb(242,247,244); fill-rule: nonzero; opacity: 1;"  transform=" translate(-409.14, -239.27)" d="m 412 227 c 3.22 2.14 6.25 4.51 8 8 c 0.64 3.98 0.78 7.52 -1.13 11.15 c -2.42 3.1 -3.98 4.65 -7.87 5.54 c -4.88 -1.12 -8.77 -3.9 -12 -7.69 c -1.09 -3.03 -1.37 -5.81 -1 -9 c 3.33 -5.8 7.17 -8.9 14 -8 z" stroke-linecap="round" />
</g>
<g transform="matrix(1 0 0 1 315.35 233.47)"  >
<path style="stroke: none; stroke-width: 1; stroke-dasharray: none; stroke-linecap: butt; stroke-dashoffset: 0; stroke-linejoin: miter; stroke-miterlimit: 4; fill: rgb(135,238,229); fill-rule: nonzero; opacity: 1;"  transform=" translate(-615.57, -378.99)" d="m 619 368 c 3.34 2.06 4.83 3.74 7 7 c 0.6 3.09 0.64 5.92 0 9 c -2.72 3.55 -6.38 5.71 -10.75 6.5 c -4.29 -0.66 -5.45 -2.46 -8.05 -5.77 c -2.59 -3.73 -2.92 -7.3 -2.2 -11.73 c 3.57 -5.53 7.86 -6.23 14 -5 z" stroke-linecap="round" />
</g>
<g transform="matrix(1 0 0 1 107.66 165.85)"  >
<path style="stroke: none; stroke-width: 1; stroke-dasharray: none; stroke-linecap: butt; stroke-dashoffset: 0; stroke-linejoin: miter; stroke-miterlimit: 4; fill: rgb(205,236,235); fill-rule: nonzero; opacity: 1;"  transform=" translate(-407.88, -311.37)" d="m 412 301 c 2.81 1.79 4.51 3.02 6 6 c 0.55 5.7 -0.39 8.57 -4 13 c -3 2 -3 2 -6.31 2.06 c -4.88 -1.4 -7.22 -3.66 -9.69 -8.06 c -0.75 -4.38 -0.55 -6.15 1.87 -9.87 c 3.61 -3.61 7.19 -3.84 12.13 -3.13 z" stroke-linecap="round" />
</g>
<g transform="matrix(1 0 0 1 109.98 233.07)"  >
<path style="stroke: none; stroke-width: 1; stroke-dasharray: none; stroke-linecap: butt; stroke-dashoffset: 0; stroke-linejoin: miter; stroke-miterlimit: 4; fill: rgb(219,242,237); fill-rule: nonzero; opacity: 1;"  transform=" translate(-410.2, -378.59)" d="m 410.31 368.06 c 4.55 1.16 6.63 2.36 9.69 5.94 c 0.86 3.19 0.86 5.8 0 9 c -2.99 3.49 -5.2 4.75 -9.56 6.12 c -3.44 -0.12 -3.44 -0.12 -6.26 -2.43 c -0.72 -0.89 -1.44 -1.78 -2.18 -2.69 c -0.66 -0.66 -1.32 -1.32 -2 -2 c -0.47 -4.13 -0.47 -6.28 1.81 -9.81 c 2.93 -2.93 4.27 -4.21 8.5 -4.13 z" stroke-linecap="round" />
</g>
<g transform="matrix(1 0 0 1 212.78 372.98)"  >
<path style="stroke: none; stroke-width: 1; stroke-dasharray: none; stroke-linecap: butt; stroke-dashoffset: 0; stroke-linejoin: miter; stroke-miterlimit: 4; fill: rgb(247,249,237); fill-rule: nonzero; opacity: 1;"  transform=" translate(-513, -518.5)" d="m 507 505 c 3.96 0.33 7.92 0.66 12 1 c 0 8.58 0 17.16 0 26 c -3.96 0 -7.92 0 -12 0 c 0 -8.91 0 -17.82 0 -27 z" stroke-linecap="round" />
</g>
<g transform="matrix(1 0 0 1 347.8 320.97)"  >
<path style="stroke: none; stroke-width: 1; stroke-dasharray: none; stroke-linecap: butt; stroke-dashoffset: 0; stroke-linejoin: miter; stroke-miterlimit: 4; fill: rgb(245,249,246); fill-rule: nonzero; opacity: 1;"  transform=" translate(5.98, -14.49)" d="m 0 0 c 1.64 17.63 1.64 17.63 -2.12 23.07 c -3.49 2.74 -6.68 4.53 -10.88 5.93 c 0 -9.24 0 -18.48 0 -28 c 4.63 -0.66 8.44 -1.11 13 -1 z" stroke-linecap="round" />
</g>
<g transform="matrix(1 0 0 1 110.78 63.98)"  >
<path style="stroke: none; stroke-width: 1; stroke-dasharray: none; stroke-linecap: butt; stroke-dashoffset: 0; stroke-linejoin: miter; stroke-miterlimit: 4; fill: rgb(71,160,158); fill-rule: nonzero; opacity: 1;"  transform=" translate(12, -8.5)" d="m 0 0 c 0 5.61 0 11.22 0 17 c -1.36 -0.33 -2.72 -0.66 -4.13 -1 c -6.61 -1.35 -13.15 -1.17 -19.87 -1 c 3.77 -4.15 7.97 -7.2 12.6 -10.35 c 2.39 -1.58 2.39 -1.58 4.4 -3.36 c 2 -1.29 2 -1.29 7 -1.29 z" stroke-linecap="round" />
</g>
<g transform="matrix(1 0 0 1 346.74 272.03)"  >
<path style="stroke: none; stroke-width: 1; stroke-dasharray: none; stroke-linecap: butt; stroke-dashoffset: 0; stroke-linejoin: miter; stroke-miterlimit: 4; fill: rgb(32,48,67); fill-rule: nonzero; opacity: 1;"  transform=" translate(-646.96, -417.55)" d="m 647.99 409.65 c 3.29 0.57 4.88 1.83 7.01 4.35 c 0.71 3.72 0.25 5.49 -1.44 8.87 c -3.28 2.72 -5.3 2.65 -9.44 2.6 c -2.64 -0.59 -3.56 -1.28 -5.12 -3.47 c -0.4 -2.16 -0.4 -2.16 -0.38 -4.5 c 0 -0.78 -0.01 -1.55 -0.02 -2.35 c 0.97 -5.23 4.5 -5.71 9.39 -5.5 z" stroke-linecap="round" />
</g>
<g transform="matrix(1 0 0 1 372.7 131.88)"  >
<path style="stroke: none; stroke-width: 1; stroke-dasharray: none; stroke-linecap: butt; stroke-dashoffset: 0; stroke-linejoin: miter; stroke-miterlimit: 4; fill: rgb(245,248,246); fill-rule: nonzero; opacity: 1;"  transform=" translate(-672.9, -277.4)" d="m 674 271 c 4.42 3.61 6.38 7.59 8 13 c -2.81 0.03 -5.62 0.05 -8.44 0.06 c -0.8 0.01 -1.6 0.02 -2.43 0.03 c -2.04 0.01 -4.09 -0.04 -6.13 -0.09 c -1 -1 -1 -1 -1.19 -4.31 c 0.17 -3.34 0.33 -5 2.19 -7.69 c 2.98 -1.49 4.69 -1.51 8 -1 z" stroke-linecap="round" />
</g>
<g transform="matrix(1 0 0 1 384.78 272.98)"  >
<path style="stroke: none; stroke-width: 1; stroke-dasharray: none; stroke-linecap: butt; stroke-dashoffset: 0; stroke-linejoin: miter; stroke-miterlimit: 4; fill: rgb(250,248,234); fill-rule: nonzero; opacity: 1;"  transform=" translate(-685, -418.5)" d="m 680 412 c 3.3 0 6.6 0 10 0 c -0.43 0.99 -0.43 0.99 -0.87 2 c -1.36 3.62 -2.24 7.23 -3.13 11 c -1.98 0 -3.96 0 -6 0 c 0 -4.29 0 -8.58 0 -13 z" stroke-linecap="round" />
</g>
<g transform="matrix(1 0 0 1 288.78 244.48)"  >
<path style="stroke: none; stroke-width: 1; stroke-dasharray: none; stroke-linecap: butt; stroke-dashoffset: 0; stroke-linejoin: miter; stroke-miterlimit: 4; fill: rgb(67,118,123); fill-rule: nonzero; opacity: 1;"  transform=" translate(3, -7)" d="m 0 0 c 0.66 0 1.32 0 2 0 c 0 4.62 0 9.24 0 14 c -3.3 0 -6.6 0 -10 0 c 1.58 -3.16 3.22 -6.2 5 -9.25 c 0.52 -0.89 1.03 -1.78 1.56 -2.7 c 0.48 -0.68 0.95 -1.35 1.44 -2.05 z" stroke-linecap="round" />
</g>
<g transform="matrix(1 0 0 1 192.28 169.74)"  >
<path style="stroke: none; stroke-width: 1; stroke-dasharray: none; stroke-linecap: butt; stroke-dashoffset: 0; stroke-linejoin: miter; stroke-miterlimit: 4; fill: rgb(3,42,76); fill-rule: nonzero; opacity: 1;"  transform=" translate(-492.5, -315.26)" d="m 481 309 c 3.47 1.16 4.08 2.16 6.25 5 c 2.55 2.99 3.45 3.91 7.31 5.13 c 3.54 -0.13 6.18 -0.78 9.44 -2.13 c -1 3 -1 3 -3 4 c -4.5 0.74 -8.42 1 -12.37 -1.49 c -1.99 -1.76 -3.83 -3.56 -5.63 -5.51 c -0.66 -0.66 -1.32 -1.32 -2 -2 c 0 -0.99 0 -1.98 0 -3 z" stroke-linecap="round" />
</g>
<g transform="matrix(1 0 0 1 369.23 302.48)"  >
<path style="stroke: none; stroke-width: 1; stroke-dasharray: none; stroke-linecap: butt; stroke-dashoffset: 0; stroke-linejoin: miter; stroke-miterlimit: 4; fill: rgb(160,187,190); fill-rule: nonzero; opacity: 1;"  transform=" translate(-669.45, -448)" d="m 669 444 c 0.99 0 1.98 0 3 0 c -0.54 3.8 -2.2 5.47 -5 8 c -0.13 -2.87 -0.13 -2.87 0 -6 c 0.66 -0.66 1.32 -1.32 2 -2 z" stroke-linecap="round" />
</g>
<g transform="matrix(1 0 0 1 342.78 83.98)"  >
<path style="stroke: none; stroke-width: 1; stroke-dasharray: none; stroke-linecap: butt; stroke-dashoffset: 0; stroke-linejoin: miter; stroke-miterlimit: 4; fill: rgb(234,241,242); fill-rule: nonzero; opacity: 1;"  transform=" translate(-2, -2.5)" d="m 0 0 c 1.98 0.99 1.98 0.99 4 2 c 0 0.99 0 1.98 0 3 c -1.32 0 -2.64 0 -4 0 c 0 -1.65 0 -3.3 0 -5 z" stroke-linecap="round" />
</g>
</svg>